<mxfile host="app.diagrams.net" agent="Mozilla/5.0 (Windows NT 10.0; Win64; x64) AppleWebKit/537.36 (KHTML, like Gecko) Chrome/140.0.0.0 Safari/537.36" version="28.1.2">
  <diagram name="第 1 页" id="WUS0LKwLHXxKLdZVTTik">
    <mxGraphModel dx="1426" dy="785" grid="0" gridSize="10" guides="1" tooltips="1" connect="1" arrows="1" fold="1" page="1" pageScale="1" pageWidth="827" pageHeight="1169" math="0" shadow="0">
      <root>
        <mxCell id="0" />
        <mxCell id="1" parent="0" />
        <mxCell id="5eXpX-kXhK1_SD8URx4p-1" value="" style="rounded=0;whiteSpace=wrap;html=1;" parent="1" vertex="1">
          <mxGeometry x="100" y="160" width="120" height="440" as="geometry" />
        </mxCell>
        <mxCell id="5eXpX-kXhK1_SD8URx4p-10" style="edgeStyle=orthogonalEdgeStyle;rounded=0;orthogonalLoop=1;jettySize=auto;html=1;" parent="1" source="5eXpX-kXhK1_SD8URx4p-2" target="5eXpX-kXhK1_SD8URx4p-9" edge="1">
          <mxGeometry relative="1" as="geometry" />
        </mxCell>
        <mxCell id="5eXpX-kXhK1_SD8URx4p-11" value="一级索引" style="edgeLabel;html=1;align=center;verticalAlign=middle;resizable=0;points=[];fontColor=light-dark(#e21212, #ededed);whiteSpace=wrap;" parent="5eXpX-kXhK1_SD8URx4p-10" vertex="1" connectable="0">
          <mxGeometry x="-0.1478" y="-2" relative="1" as="geometry">
            <mxPoint x="5" y="-2" as="offset" />
          </mxGeometry>
        </mxCell>
        <mxCell id="5eXpX-kXhK1_SD8URx4p-2" value="0" style="rounded=0;whiteSpace=wrap;html=1;" parent="1" vertex="1">
          <mxGeometry x="100" y="160" width="120" height="60" as="geometry" />
        </mxCell>
        <mxCell id="5eXpX-kXhK1_SD8URx4p-3" value="1" style="rounded=0;whiteSpace=wrap;html=1;" parent="1" vertex="1">
          <mxGeometry x="100" y="220" width="120" height="60" as="geometry" />
        </mxCell>
        <mxCell id="5eXpX-kXhK1_SD8URx4p-4" value="2" style="rounded=0;whiteSpace=wrap;html=1;" parent="1" vertex="1">
          <mxGeometry x="100" y="280" width="120" height="60" as="geometry" />
        </mxCell>
        <mxCell id="5eXpX-kXhK1_SD8URx4p-17" style="edgeStyle=orthogonalEdgeStyle;rounded=0;orthogonalLoop=1;jettySize=auto;html=1;" parent="1" source="5eXpX-kXhK1_SD8URx4p-5" edge="1">
          <mxGeometry relative="1" as="geometry">
            <mxPoint x="336" y="570" as="targetPoint" />
          </mxGeometry>
        </mxCell>
        <mxCell id="5eXpX-kXhK1_SD8URx4p-22" value="&lt;font style=&quot;color: rgb(255, 0, 0);&quot;&gt;一级索引&lt;/font&gt;" style="edgeLabel;html=1;align=center;verticalAlign=middle;resizable=0;points=[];" parent="5eXpX-kXhK1_SD8URx4p-17" vertex="1" connectable="0">
          <mxGeometry x="-0.0043" relative="1" as="geometry">
            <mxPoint as="offset" />
          </mxGeometry>
        </mxCell>
        <mxCell id="5eXpX-kXhK1_SD8URx4p-5" value="169" style="rounded=0;whiteSpace=wrap;html=1;" parent="1" vertex="1">
          <mxGeometry x="100" y="540" width="120" height="60" as="geometry" />
        </mxCell>
        <mxCell id="5eXpX-kXhK1_SD8URx4p-6" value="512KB" style="text;html=1;align=center;verticalAlign=middle;resizable=0;points=[];autosize=1;strokeColor=none;fillColor=none;" parent="1" vertex="1">
          <mxGeometry x="10" y="340" width="60" height="30" as="geometry" />
        </mxCell>
        <mxCell id="5eXpX-kXhK1_SD8URx4p-7" value="" style="endArrow=classic;html=1;rounded=0;" parent="1" edge="1">
          <mxGeometry width="50" height="50" relative="1" as="geometry">
            <mxPoint x="200" y="180" as="sourcePoint" />
            <mxPoint x="250" y="130" as="targetPoint" />
          </mxGeometry>
        </mxCell>
        <mxCell id="5eXpX-kXhK1_SD8URx4p-8" value="3KB" style="text;html=1;align=center;verticalAlign=middle;resizable=0;points=[];autosize=1;strokeColor=none;fillColor=none;" parent="1" vertex="1">
          <mxGeometry x="245" y="108" width="50" height="30" as="geometry" />
        </mxCell>
        <mxCell id="5eXpX-kXhK1_SD8URx4p-9" value="512KB" style="rounded=0;whiteSpace=wrap;html=1;" parent="1" vertex="1">
          <mxGeometry x="335" y="160" width="120" height="60" as="geometry" />
        </mxCell>
        <mxCell id="5eXpX-kXhK1_SD8URx4p-12" value="" style="rounded=0;whiteSpace=wrap;html=1;" parent="1" vertex="1">
          <mxGeometry x="337" y="296" width="120" height="440" as="geometry" />
        </mxCell>
        <mxCell id="5eXpX-kXhK1_SD8URx4p-19" style="edgeStyle=orthogonalEdgeStyle;rounded=0;orthogonalLoop=1;jettySize=auto;html=1;entryX=0;entryY=0.5;entryDx=0;entryDy=0;" parent="1" source="5eXpX-kXhK1_SD8URx4p-13" target="5eXpX-kXhK1_SD8URx4p-18" edge="1">
          <mxGeometry relative="1" as="geometry" />
        </mxCell>
        <mxCell id="5eXpX-kXhK1_SD8URx4p-23" value="二级索引" style="edgeLabel;html=1;align=center;verticalAlign=middle;resizable=0;points=[];fontColor=#FF0000;" parent="5eXpX-kXhK1_SD8URx4p-19" vertex="1" connectable="0">
          <mxGeometry x="-0.0604" y="-2" relative="1" as="geometry">
            <mxPoint as="offset" />
          </mxGeometry>
        </mxCell>
        <mxCell id="5eXpX-kXhK1_SD8URx4p-13" value="0" style="rounded=0;whiteSpace=wrap;html=1;" parent="1" vertex="1">
          <mxGeometry x="337" y="296" width="120" height="60" as="geometry" />
        </mxCell>
        <mxCell id="5eXpX-kXhK1_SD8URx4p-14" value="1" style="rounded=0;whiteSpace=wrap;html=1;" parent="1" vertex="1">
          <mxGeometry x="337" y="356" width="120" height="60" as="geometry" />
        </mxCell>
        <mxCell id="5eXpX-kXhK1_SD8URx4p-15" value="2" style="rounded=0;whiteSpace=wrap;html=1;" parent="1" vertex="1">
          <mxGeometry x="337" y="416" width="120" height="60" as="geometry" />
        </mxCell>
        <mxCell id="5eXpX-kXhK1_SD8URx4p-16" value="169" style="rounded=0;whiteSpace=wrap;html=1;" parent="1" vertex="1">
          <mxGeometry x="337" y="676" width="120" height="60" as="geometry" />
        </mxCell>
        <mxCell id="5eXpX-kXhK1_SD8URx4p-18" value="512KB" style="rounded=0;whiteSpace=wrap;html=1;" parent="1" vertex="1">
          <mxGeometry x="606" y="296" width="120" height="60" as="geometry" />
        </mxCell>
      </root>
    </mxGraphModel>
  </diagram>
</mxfile>
